<?xml version="1.0" standalone="no"?>
<!DOCTYPE svg PUBLIC "-//W3C//DTD SVG 20010904//EN"
 "http://www.w3.org/TR/2001/REC-SVG-20010904/DTD/svg10.dtd">
<svg version="1.0" xmlns="http://www.w3.org/2000/svg"
 width="566.000000pt" height="566.000000pt" viewBox="0 0 566.000000 566.000000"
 preserveAspectRatio="xMidYMid meet">
<metadata>
Created by potrace 1.14, written by Peter Selinger 2001-2017
</metadata>
<g transform="translate(0.000000,566.000000) scale(0.100000,-0.100000)"
fill="#000000" stroke="none">
<path d="M0 2830 l0 -2830 2830 0 2830 0 0 2830 0 2830 -2830 0 -2830 0 0
-2830z m1240 1560 c0 -5 -7 -10 -15 -10 -8 0 -15 5 -15 10 0 6 7 10 15 10 8 0
15 -4 15 -10z m780 -78 l0 -89 -40 -1 c-44 -2 -60 15 -60 67 0 37 26 64 57 58
20 -4 23 0 23 24 0 16 5 29 10 29 6 0 10 -36 10 -88z m-950 53 c0 -8 10 -16
23 -16 l22 -2 -22 -4 c-20 -4 -23 -11 -23 -54 0 -48 5 -54 39 -50 7 2 10 -2 6
-8 -9 -16 -31 -13 -49 5 -10 9 -16 33 -16 60 0 35 -4 44 -17 45 -17 1 -17 2 0
6 9 2 17 11 17 19 0 8 5 14 10 14 6 0 10 -7 10 -15z m1200 0 c0 -8 9 -15 20
-15 11 0 20 -4 20 -10 0 -5 -9 -10 -20 -10 -17 0 -20 -7 -20 -45 0 -44 1 -45
31 -45 17 0 28 -4 24 -10 -9 -14 -48 -13 -63 2 -7 7 -12 31 -12 55 0 32 -4 43
-15 43 -8 0 -15 5 -15 10 0 6 7 10 15 10 8 0 15 7 15 15 0 8 5 15 10 15 6 0
10 -7 10 -15z m-1610 -25 c11 -8 6 -9 -20 -8 -50 4 -54 -26 -6 -42 43 -14 49
-45 11 -62 -19 -8 -30 -8 -47 1 l-23 12 23 -5 c58 -11 71 26 17 48 -38 16 -45
39 -17 55 22 13 43 13 62 1z m150 -10 c34 -34 26 -50 -25 -50 -33 0 -45 -4
-45 -15 0 -20 32 -35 61 -29 21 5 22 4 6 -6 -27 -17 -66 -4 -77 26 -26 67 33
121 80 74z m150 9 c12 -8 12 -10 -5 -8 -37 3 -45 -1 -56 -25 -17 -36 3 -66 44
-67 30 0 31 -1 10 -11 -57 -28 -104 69 -51 106 26 19 37 20 58 5z m280 -48 c0
-54 2 -60 23 -64 12 -2 -3 -4 -33 -4 -30 0 -45 2 -32 4 19 4 22 10 22 58 0 48
-3 54 -22 58 -17 3 -14 5 10 6 l32 1 0 -59z m170 39 c11 -11 20 -31 20 -45 0
-28 -32 -65 -55 -65 -23 0 -55 37 -55 65 0 28 32 65 55 65 8 0 24 -9 35 -20z
m101 11 c11 5 29 7 39 4 17 -6 20 -15 18 -68 -2 -60 -2 -61 -5 -12 -4 46 -16
75 -32 75 -22 -1 -36 -26 -42 -72 l-6 -53 -1 70 c0 39 2 64 5 58 3 -10 10 -10
24 -2z m647 -3 c5 -7 12 -36 14 -63 l5 -51 -45 1 c-31 0 -48 5 -56 18 -16 25
4 51 43 55 41 4 36 26 -7 30 -18 2 -30 8 -27 13 9 13 61 11 73 -3z m300 0 c5
-7 12 -36 14 -63 l5 -51 -45 1 c-31 0 -48 5 -56 18 -16 25 4 51 43 55 41 4 36
26 -7 30 -18 2 -30 8 -27 13 9 13 61 11 73 -3z m-615 -84 c9 -10 -4 -34 -18
-34 -17 0 -28 17 -20 30 7 11 28 13 38 4z m-153 -174 c0 -5 -7 -10 -15 -10 -8
0 -15 5 -15 10 0 6 7 10 15 10 8 0 15 -4 15 -10z m629 -82 c0 -51 -3 -88 -5
-81 -4 9 -11 9 -30 1 -50 -23 -84 49 -48 100 13 19 22 22 45 17 27 -6 29 -5
29 24 0 17 2 31 5 31 3 0 5 -42 4 -92z m100 37 c35 8 61 -15 61 -54 0 -42 -23
-66 -64 -66 l-36 0 2 90 c0 50 3 75 5 57 4 -31 7 -33 32 -27z m-1049 20 c0 -8
9 -15 20 -15 11 0 20 -4 20 -10 0 -5 -9 -10 -20 -10 -17 0 -20 -7 -20 -45 0
-44 1 -45 31 -45 17 0 28 -4 24 -10 -9 -14 -48 -13 -63 2 -7 7 -12 31 -12 55
0 32 -4 43 -15 43 -8 0 -15 5 -15 10 0 6 7 10 15 10 8 0 15 7 15 15 0 8 5 15
10 15 6 0 10 -7 10 -15z m659 -23 c-11 -2 -15 -10 -12 -23 7 -25 -14 -49 -43
-49 -15 0 -24 -6 -24 -15 0 -10 10 -15 29 -15 36 0 59 -25 44 -48 -19 -31
-103 -27 -103 5 0 13 3 14 12 5 17 -17 78 -16 78 2 0 10 -13 16 -37 18 -34 3
-38 6 -38 30 -1 15 -4 30 -8 34 -11 12 -8 42 6 51 17 10 90 20 102 14 6 -3 3
-7 -6 -9z m-769 -2 c11 -7 5 -10 -22 -10 -48 0 -49 -17 -3 -36 69 -28 33 -88
-41 -70 -36 9 -21 21 22 17 30 -2 35 0 32 16 -2 10 -12 19 -23 21 -28 6 -45
21 -45 42 0 28 49 40 80 20z m253 -2 c4 -10 7 -10 18 0 20 19 49 15 49 -7 0
-11 -4 -23 -10 -26 -5 -3 -10 1 -10 9 0 19 -11 21 -28 4 -14 -14 -16 -78 -2
-78 6 0 10 -4 10 -10 0 -5 -13 -10 -30 -10 -16 0 -30 5 -30 10 0 6 5 10 10 10
6 0 10 20 10 45 0 25 -4 45 -10 45 -5 0 -10 5 -10 10 0 14 27 12 33 -2z m177
-43 c0 -41 4 -55 14 -55 8 0 18 -4 21 -10 4 -6 -13 -10 -44 -10 -28 0 -51 5
-51 10 0 6 9 10 20 10 17 0 20 7 20 45 0 38 -3 45 -20 45 -11 0 -20 5 -20 10
0 6 14 10 30 10 30 0 30 -1 30 -55z m178 -12 c2 -39 -1 -63 -8 -63 -6 0 -10
24 -10 56 0 52 -1 55 -22 52 -20 -3 -23 -10 -26 -55 -4 -74 -22 -66 -22 10 l0
62 43 0 42 0 3 -62z m-628 -513 c0 -5 -7 -10 -15 -10 -8 0 -15 5 -15 10 0 6 7
10 15 10 8 0 15 -4 15 -10z m-170 -25 c0 -8 10 -16 23 -16 l22 -2 -22 -4 c-20
-4 -23 -11 -23 -54 0 -48 5 -54 39 -50 7 2 10 -2 6 -8 -9 -16 -31 -13 -49 5
-10 9 -16 33 -16 60 0 35 -4 44 -17 45 -17 1 -17 2 0 6 9 2 17 11 17 19 0 8 5
14 10 14 6 0 10 -7 10 -15z m900 0 c0 -8 9 -15 20 -15 11 0 20 -4 20 -10 0 -5
-9 -10 -20 -10 -17 0 -20 -7 -20 -45 0 -44 1 -45 31 -45 17 0 28 -4 24 -10 -9
-14 -48 -13 -63 2 -7 7 -12 31 -12 55 0 32 -4 43 -15 43 -8 0 -15 5 -15 10 0
6 7 10 15 10 8 0 15 7 15 15 0 8 5 15 10 15 6 0 10 -7 10 -15z m450 0 c0 -8 9
-15 20 -15 11 0 20 -4 20 -10 0 -5 -9 -10 -20 -10 -17 0 -20 -7 -20 -45 0 -44
1 -45 31 -45 17 0 28 -4 24 -10 -9 -14 -48 -13 -63 2 -7 7 -12 31 -12 55 0 32
-4 43 -15 43 -8 0 -15 5 -15 10 0 6 7 10 15 10 8 0 15 7 15 15 0 8 5 15 10 15
6 0 10 -7 10 -15z m-1760 -25 c11 -8 6 -9 -20 -8 -50 4 -54 -26 -6 -42 43 -14
49 -45 11 -62 -19 -8 -30 -8 -47 1 l-23 12 23 -5 c58 -11 71 26 17 48 -38 16
-45 39 -17 55 22 13 43 13 62 1z m150 -10 c34 -34 26 -50 -25 -50 -33 0 -45
-4 -45 -15 0 -20 32 -35 61 -29 21 5 22 4 6 -6 -27 -17 -66 -4 -77 26 -26 67
33 121 80 74z m150 9 c12 -8 12 -10 -5 -8 -37 3 -45 -1 -56 -25 -17 -36 3 -66
44 -67 30 0 31 -1 10 -11 -57 -28 -104 69 -51 106 26 19 37 20 58 5z m280 -48
c0 -54 2 -60 23 -64 12 -2 -3 -4 -33 -4 -30 0 -45 2 -32 4 19 4 22 10 22 58 0
48 -3 54 -22 58 -17 3 -14 5 10 6 l32 1 0 -59z m170 39 c11 -11 20 -31 20 -45
0 -28 -32 -65 -55 -65 -23 0 -55 37 -55 65 0 28 32 65 55 65 8 0 24 -9 35 -20z
m101 11 c11 5 29 7 39 4 17 -6 20 -15 18 -68 -2 -60 -2 -61 -5 -12 -4 46 -16
75 -32 75 -22 -1 -36 -26 -42 -72 l-6 -53 -1 70 c0 39 2 64 5 58 3 -10 10 -10
24 -2z m653 -13 c27 -38 20 -48 -29 -48 -25 0 -45 -4 -45 -8 0 -17 25 -32 53
-32 16 0 26 -4 22 -10 -12 -19 -63 -11 -79 12 -31 44 -7 108 39 108 13 0 31
-10 39 -22z m95 0 l14 -22 17 22 c27 33 44 26 19 -7 l-22 -29 23 -36 c25 -41
10 -50 -17 -10 l-17 26 -23 -28 c-29 -37 -41 -24 -13 14 l23 30 -22 31 c-16
21 -18 31 -9 31 7 0 19 -10 27 -22z m-416 -74 c9 -10 -4 -34 -18 -34 -17 0
-28 17 -20 30 7 11 28 13 38 4z m-473 -237 c0 -75 10 -100 39 -90 12 5 13 3 5
-7 -7 -7 -21 -9 -33 -5 -19 6 -21 14 -21 81 0 68 -2 75 -22 84 -22 8 -22 9 5
9 l27 1 0 -73z m299 18 c35 8 61 -15 61 -54 0 -42 -23 -66 -64 -66 l-36 0 2
90 c0 50 3 75 5 57 4 -31 7 -33 32 -27z m301 -18 c0 -75 10 -100 39 -90 12 5
13 3 5 -7 -7 -7 -21 -9 -33 -5 -19 6 -21 14 -21 81 0 68 -2 75 -22 84 -22 8
-22 9 5 9 l27 1 0 -73z m600 38 c0 -8 9 -15 20 -15 11 0 20 -4 20 -10 0 -5 -9
-10 -20 -10 -17 0 -20 -7 -20 -45 0 -44 1 -45 31 -45 17 0 28 -4 24 -10 -9
-14 -48 -13 -63 2 -7 7 -12 31 -12 55 0 32 -4 43 -15 43 -8 0 -15 5 -15 10 0
6 7 10 15 10 8 0 15 7 15 15 0 8 5 15 10 15 6 0 10 -7 10 -15z m450 0 c0 -8 9
-15 20 -15 11 0 20 -4 20 -10 0 -5 -9 -10 -20 -10 -17 0 -20 -7 -20 -45 0 -44
1 -45 31 -45 17 0 28 -4 24 -10 -9 -14 -48 -13 -63 2 -7 7 -12 31 -12 55 0 32
-4 43 -15 43 -8 0 -15 5 -15 10 0 6 7 10 15 10 8 0 15 7 15 15 0 8 5 15 10 15
6 0 10 -7 10 -15z m-1740 -15 c0 -5 -7 -10 -15 -10 -12 0 -13 -3 -3 -19 15
-25 -4 -51 -38 -51 -38 0 -28 -26 14 -36 46 -11 52 -43 10 -58 -26 -9 -88 7
-75 20 3 3 15 0 27 -6 17 -9 29 -9 47 -1 30 14 21 31 -15 31 -37 0 -56 14 -48
35 3 9 1 25 -5 37 -15 28 13 56 60 61 20 2 37 4 39 5 1 1 2 -2 2 -8z m280 -20
c11 -11 20 -31 20 -45 0 -28 -32 -65 -55 -65 -23 0 -55 37 -55 65 0 28 32 65
55 65 8 0 24 -9 35 -20z m294 4 c20 -19 22 -106 4 -103 -7 1 -21 -2 -32 -6
-40 -17 -75 37 -40 62 10 7 28 13 41 13 13 0 23 6 23 14 0 18 -22 26 -52 19
-18 -4 -20 -3 -8 6 21 15 46 13 64 -5z m606 6 c11 -7 5 -10 -22 -10 -48 0 -49
-17 -3 -36 69 -28 33 -88 -41 -70 -36 9 -21 21 22 17 30 -2 35 0 32 16 -2 10
-12 19 -23 21 -28 6 -45 21 -45 42 0 28 49 40 80 20z m298 -2 c5 -7 12 -36 14
-63 l5 -51 -45 1 c-31 0 -48 5 -56 18 -16 25 4 51 43 55 41 4 36 26 -7 30 -18
2 -30 8 -27 13 9 13 61 11 73 -3z m105 0 c4 -10 7 -10 18 0 20 19 49 15 49 -7
0 -11 -4 -23 -10 -26 -5 -3 -10 1 -10 9 0 19 -11 21 -28 4 -14 -14 -16 -78 -2
-78 6 0 10 -4 10 -10 0 -5 -13 -10 -30 -10 -16 0 -30 5 -30 10 0 6 5 10 10 10
6 0 10 20 10 45 0 25 -4 45 -10 45 -5 0 -10 5 -10 10 0 14 27 12 33 -2z m-528
-148 c4 -6 -18 -10 -59 -10 -37 0 -66 4 -66 10 0 6 26 10 59 10 33 0 63 -4 66
-10z m-815 -445 c0 -8 10 -16 23 -16 l22 -2 -22 -4 c-20 -4 -23 -11 -23 -53 0
-48 17 -69 42 -53 7 3 8 1 4 -5 -4 -7 -13 -12 -21 -12 -27 0 -45 31 -45 76 0
35 -4 44 -17 45 -17 1 -17 2 0 6 9 2 17 11 17 19 0 8 5 14 10 14 6 0 10 -7 10
-15z m450 0 c0 -8 10 -16 23 -16 l22 -2 -22 -4 c-20 -4 -23 -11 -23 -53 0 -48
17 -69 42 -53 7 3 8 1 4 -5 -4 -7 -13 -12 -21 -12 -27 0 -45 31 -45 76 0 35
-4 44 -17 45 -17 1 -17 2 0 6 9 2 17 11 17 19 0 8 5 14 10 14 6 0 10 -7 10
-15z m-565 -26 c16 -7 13 -8 -11 -4 -21 4 -35 1 -43 -9 -11 -13 -7 -18 26 -33
46 -22 54 -48 19 -64 -20 -9 -31 -9 -48 0 l-23 12 23 -5 c58 -11 71 26 17 48
-38 16 -45 39 -17 55 21 12 31 12 57 0z m291 3 c6 -4 13 -30 16 -59 4 -45 3
-51 -13 -50 -13 1 -15 5 -9 11 6 6 10 18 10 29 0 14 -6 18 -27 15 -34 -4 -43
-36 -17 -55 21 -16 11 -17 -17 -3 -40 22 -12 70 40 70 12 0 21 6 21 14 0 18
-30 29 -56 20 -16 -5 -16 -4 -4 5 17 12 40 14 56 3z m114 -8 c0 -14 2 -14 22
0 30 22 48 20 48 -4 0 -11 -4 -20 -10 -20 -5 0 -10 5 -10 10 0 20 -27 9 -38
-15 -17 -37 -15 -62 6 -74 14 -8 10 -10 -18 -10 -19 0 -29 3 -22 6 15 6 17
103 2 103 -5 0 -10 5 -10 10 0 6 7 10 15 10 8 0 15 -7 15 -16z m325 -14 c-5
-8 -11 -8 -17 -2 -6 6 -7 16 -3 22 5 8 11 8 17 2 6 -6 7 -16 3 -22z m0 -90
c-5 -8 -11 -8 -17 -2 -6 6 -7 16 -3 22 5 8 11 8 17 2 6 -6 7 -16 3 -22z m-877
-47 c-15 -2 -42 -2 -60 0 -18 2 -6 4 27 4 33 0 48 -2 33 -4z m1362 -181 l0
-89 -40 -1 c-44 -2 -60 15 -60 67 0 37 26 64 57 58 20 -4 23 0 23 24 0 16 5
29 10 29 6 0 10 -36 10 -88z m-794 26 c4 -4 13 -3 20 3 24 19 34 -1 32 -64 -2
-59 -2 -60 -5 -12 -5 69 -10 80 -28 65 -8 -6 -16 -35 -18 -63 l-3 -52 -2 57
c-1 31 -6 59 -10 62 -18 11 -31 -13 -35 -64 l-3 -55 -2 65 c-2 64 -1 66 22 65
13 0 28 -3 32 -7z m184 -8 c11 -11 20 -31 20 -45 0 -28 -32 -65 -55 -65 -23 0
-55 37 -55 65 0 28 32 65 55 65 8 0 24 -9 35 -20z m94 -35 c9 -30 19 -55 21
-55 2 0 12 25 21 55 10 30 22 55 27 55 5 0 6 -6 4 -12 -3 -7 -14 -37 -23 -65
-10 -29 -23 -53 -29 -53 -6 0 -19 24 -29 53 -9 28 -20 58 -23 65 -2 6 -1 12 4
12 5 0 17 -25 27 -55z m309 43 c4 -10 7 -10 18 0 20 19 49 15 49 -7 0 -11 -4
-23 -10 -26 -5 -3 -10 1 -10 9 0 19 -11 21 -28 4 -14 -14 -16 -78 -2 -78 6 0
10 -4 10 -10 0 -5 -13 -10 -30 -10 -16 0 -30 5 -30 10 0 6 5 10 10 10 6 0 10
20 10 45 0 25 -4 45 -10 45 -5 0 -10 5 -10 10 0 14 27 12 33 -2z m296 -10 l14
-22 17 22 c27 33 44 26 19 -7 l-22 -29 23 -36 c25 -41 10 -50 -17 -10 l-17 26
-23 -28 c-29 -37 -41 -24 -13 14 l23 30 -22 31 c-16 21 -18 31 -9 31 7 0 19
-10 27 -22z m181 -91 c0 -23 -25 -66 -33 -57 -2 3 -2 22 1 43 5 41 32 53 32
14z m-150 -157 c0 -5 -7 -10 -15 -10 -8 0 -15 5 -15 10 0 6 7 10 15 10 8 0 15
-4 15 -10z m479 -82 c0 -51 -3 -88 -5 -81 -4 9 -11 9 -30 1 -50 -23 -84 49
-48 100 13 19 22 22 45 17 27 -6 29 -5 29 24 0 17 2 31 5 31 3 0 5 -42 4 -92z
m600 0 c0 -51 -3 -88 -5 -81 -4 9 -11 9 -30 1 -50 -23 -84 49 -48 100 13 19
22 22 45 17 27 -6 29 -5 29 24 0 17 2 31 5 31 3 0 5 -42 4 -92z m721 82 c0 -5
-7 -10 -15 -10 -8 0 -15 5 -15 10 0 6 7 10 15 10 8 0 15 -4 15 -10z m450 -75
c0 -68 2 -75 20 -75 11 0 20 -4 20 -10 0 -5 -22 -10 -50 -10 -27 0 -50 5 -50
10 0 6 9 10 20 10 18 0 20 7 20 61 0 56 -2 60 -20 54 -27 -9 -25 9 3 23 36 17
37 15 37 -63z m-770 50 c0 -8 9 -15 20 -15 11 0 20 -4 20 -10 0 -5 -9 -10 -20
-10 -17 0 -20 -7 -20 -45 0 -44 1 -45 31 -45 17 0 28 -4 24 -10 -9 -14 -48
-13 -63 2 -7 7 -12 31 -12 55 0 32 -4 43 -15 43 -8 0 -15 5 -15 10 0 6 7 10
15 10 8 0 15 7 15 15 0 8 5 15 10 15 6 0 10 -7 10 -15z m659 -23 c-11 -2 -15
-10 -12 -23 7 -25 -14 -49 -43 -49 -15 0 -24 -6 -24 -15 0 -10 10 -15 29 -15
36 0 59 -25 44 -48 -19 -31 -103 -27 -103 5 0 13 3 14 12 5 17 -17 78 -16 78
2 0 10 -13 16 -37 18 -34 3 -38 6 -38 30 -1 15 -4 30 -8 34 -11 12 -8 42 6 51
17 10 90 20 102 14 6 -3 3 -7 -6 -9z m-3053 -4 c4 -4 13 -3 20 3 24 19 34 -1
32 -64 -2 -59 -2 -60 -5 -12 -5 69 -10 80 -28 65 -8 -6 -16 -35 -18 -63 l-3
-52 -2 57 c-1 31 -6 59 -10 62 -18 11 -31 -13 -35 -64 l-3 -55 -2 65 c-2 64
-1 66 22 65 13 0 28 -3 32 -7z m184 -8 c11 -11 20 -31 20 -45 0 -28 -32 -65
-55 -65 -23 0 -55 37 -55 65 0 28 32 65 55 65 8 0 24 -9 35 -20z m94 -35 c9
-30 19 -55 21 -55 2 0 12 25 21 55 10 30 22 55 27 55 5 0 6 -6 4 -12 -3 -7
-14 -37 -23 -65 -10 -29 -23 -53 -29 -53 -6 0 -19 24 -29 53 -9 28 -20 58 -23
65 -2 6 -1 12 4 12 5 0 17 -25 27 -55z m309 43 c4 -10 7 -10 18 0 20 19 49 15
49 -7 0 -11 -4 -23 -10 -26 -5 -3 -10 1 -10 9 0 19 -11 21 -28 4 -14 -14 -16
-78 -2 -78 6 0 10 -4 10 -10 0 -5 -13 -10 -30 -10 -16 0 -30 5 -30 10 0 6 5
10 10 10 6 0 10 20 10 45 0 25 -4 45 -10 45 -5 0 -10 5 -10 10 0 14 27 12 33
-2z m197 2 c11 -7 5 -10 -22 -10 -48 0 -49 -17 -3 -36 69 -28 33 -88 -41 -70
-36 9 -21 21 22 17 30 -2 35 0 32 16 -2 10 -12 19 -23 21 -28 6 -45 21 -45 42
0 28 49 40 80 20z m130 -45 c0 -41 4 -55 14 -55 8 0 18 -4 21 -10 4 -6 -13
-10 -44 -10 -28 0 -51 5 -51 10 0 6 9 10 20 10 17 0 20 7 20 45 0 38 -3 45
-20 45 -11 0 -20 5 -20 10 0 6 14 10 30 10 30 0 30 -1 30 -55z m540 0 c1 -55
18 -63 25 -12 9 62 31 61 40 0 6 -38 9 -44 16 -28 4 11 8 34 8 52 1 17 6 35
12 39 8 4 9 -3 5 -22 -3 -16 -8 -46 -12 -66 -7 -45 -34 -52 -35 -10 0 15 -4
36 -8 47 -7 16 -10 12 -17 -24 -13 -63 -29 -61 -43 5 -13 69 -14 84 -1 64 5
-8 10 -28 10 -45z m225 41 c40 -29 16 -116 -32 -116 -22 0 -53 38 -53 65 0 27
31 65 53 65 7 0 22 -6 32 -14z m105 -2 c0 -14 2 -14 22 0 30 22 48 20 48 -4 0
-11 -4 -20 -10 -20 -5 0 -10 5 -10 10 0 20 -27 9 -38 -15 -17 -37 -15 -62 6
-74 14 -8 10 -10 -18 -10 -19 0 -29 3 -22 6 15 6 17 103 2 103 -5 0 -10 5 -10
10 0 6 7 10 15 10 8 0 15 -7 15 -16z m500 6 c11 -7 5 -10 -22 -10 -48 0 -49
-17 -3 -36 69 -28 33 -88 -41 -70 -36 9 -21 21 22 17 30 -2 35 0 32 16 -2 10
-12 19 -23 21 -28 6 -45 21 -45 42 0 28 49 40 80 20z m253 -2 c4 -10 7 -10 18
0 20 19 49 15 49 -7 0 -11 -4 -23 -10 -26 -5 -3 -10 1 -10 9 0 19 -11 21 -28
4 -14 -14 -16 -78 -2 -78 6 0 10 -4 10 -10 0 -5 -13 -10 -30 -10 -16 0 -30 5
-30 10 0 6 5 10 10 10 6 0 10 20 10 45 0 25 -4 45 -10 45 -5 0 -10 5 -10 10 0
14 27 12 33 -2z m177 -43 c0 -41 4 -55 14 -55 8 0 18 -4 21 -10 4 -6 -13 -10
-44 -10 -28 0 -51 5 -51 10 0 6 9 10 20 10 17 0 20 7 20 45 0 38 -3 45 -20 45
-11 0 -20 5 -20 10 0 6 14 10 30 10 30 0 30 -1 30 -55z m178 -12 c2 -39 -1
-63 -8 -63 -6 0 -10 24 -10 56 0 52 -1 55 -22 52 -20 -3 -23 -10 -26 -55 -4
-74 -22 -66 -22 10 l0 62 43 0 42 0 3 -62z m-1828 -46 c0 -23 -25 -66 -33 -57
-2 3 -2 22 1 43 5 41 32 53 32 14z m480 -235 l0 -89 -40 -1 c-44 -2 -60 15
-60 67 0 37 26 64 57 58 20 -4 23 0 23 24 0 16 5 29 10 29 6 0 10 -36 10 -88z
m120 78 c0 -5 -7 -10 -15 -10 -8 0 -15 5 -15 10 0 6 7 10 15 10 8 0 15 -4 15
-10z m-1664 -52 c4 -4 13 -3 20 3 24 19 34 -1 32 -64 -2 -59 -2 -60 -5 -12 -5
69 -10 80 -28 65 -8 -6 -16 -35 -18 -63 l-3 -52 -2 57 c-1 31 -6 59 -10 62
-18 11 -31 -13 -35 -64 l-3 -55 -2 65 c-2 64 -1 66 22 65 13 0 28 -3 32 -7z
m184 -8 c11 -11 20 -31 20 -45 0 -28 -32 -65 -55 -65 -23 0 -55 37 -55 65 0
28 32 65 55 65 8 0 24 -9 35 -20z m94 -35 c9 -30 19 -55 21 -55 2 0 12 25 21
55 10 30 22 55 27 55 5 0 6 -6 4 -12 -3 -7 -14 -37 -23 -65 -10 -29 -23 -53
-29 -53 -6 0 -19 24 -29 53 -9 28 -20 58 -23 65 -2 6 -1 12 4 12 5 0 17 -25
27 -55z m309 43 c4 -10 7 -10 18 0 20 19 49 15 49 -7 0 -11 -4 -23 -10 -26 -5
-3 -10 1 -10 9 0 19 -11 21 -28 4 -14 -14 -16 -78 -2 -78 6 0 10 -4 10 -10 0
-5 -13 -10 -30 -10 -16 0 -30 5 -30 10 0 6 5 10 10 10 6 0 10 20 10 45 0 25
-4 45 -10 45 -5 0 -10 5 -10 10 0 14 27 12 33 -2z m195 0 c5 -7 12 -36 14 -63
l5 -51 -45 1 c-31 0 -48 5 -56 18 -16 25 4 51 43 55 41 4 36 26 -7 30 -18 2
-30 8 -27 13 9 13 61 11 73 -3z m101 -10 l14 -22 17 22 c27 33 44 26 19 -7
l-22 -29 23 -36 c25 -41 10 -50 -17 -10 l-17 26 -23 -28 c-29 -37 -41 -24 -13
14 l23 30 -22 31 c-16 21 -18 31 -9 31 7 0 19 -10 27 -22z m454 10 c4 -10 7
-10 18 0 20 19 49 15 49 -7 0 -11 -4 -23 -10 -26 -5 -3 -10 1 -10 9 0 19 -11
21 -28 4 -14 -14 -16 -78 -2 -78 6 0 10 -4 10 -10 0 -5 -13 -10 -30 -10 -16 0
-30 5 -30 10 0 6 5 10 10 10 6 0 10 20 10 45 0 25 -4 45 -10 45 -5 0 -10 5
-10 10 0 14 27 12 33 -2z m327 -43 c0 -41 4 -55 14 -55 8 0 18 -4 21 -10 4 -6
-13 -10 -44 -10 -28 0 -51 5 -51 10 0 6 9 10 20 10 17 0 20 7 20 45 0 38 -3
45 -20 45 -11 0 -20 5 -20 10 0 6 14 10 30 10 30 0 30 -1 30 -55z m-600 -58
c0 -23 -25 -66 -33 -57 -2 3 -2 22 1 43 5 41 32 53 32 14z m-310 -227 c0 -73
2 -80 20 -80 11 0 20 -5 20 -11 0 -6 -12 -9 -27 -7 -28 3 -28 4 -31 81 -3 69
-5 77 -22 77 -11 0 -20 5 -20 10 0 6 14 10 30 10 l30 0 0 -80z m150 0 c0 -73
2 -80 20 -80 11 0 20 -5 20 -11 0 -6 -12 -9 -27 -7 -28 3 -28 4 -31 81 -3 69
-5 77 -22 77 -11 0 -20 5 -20 10 0 6 14 10 30 10 l30 0 0 -80z m-870 20 c11
-7 5 -10 -22 -10 -48 0 -49 -17 -3 -36 69 -28 33 -88 -41 -70 -36 9 -21 21 22
17 30 -2 35 0 32 16 -2 10 -12 19 -23 21 -28 6 -45 21 -45 42 0 28 49 40 80
20z m97 -46 l19 -56 17 56 c10 31 23 56 29 56 5 0 8 -6 6 -12 -3 -7 -15 -43
-27 -81 -14 -41 -30 -71 -43 -78 -28 -15 -36 -2 -11 16 l22 15 -25 60 c-26 65
-29 80 -15 80 5 0 18 -25 28 -56z m203 46 c11 -7 5 -10 -22 -10 -48 0 -49 -17
-3 -36 69 -28 33 -88 -41 -70 -36 9 -21 21 22 17 30 -2 35 0 32 16 -2 10 -12
19 -23 21 -28 6 -45 21 -45 42 0 28 49 40 80 20z m157 -5 c2 -6 -12 -10 -29
-10 -32 0 -33 -2 -33 -40 0 -38 1 -40 32 -41 18 0 35 -3 39 -6 10 -10 -36 -20
-62 -14 -44 11 -55 92 -15 116 20 12 63 9 68 -5z m141 3 c5 -7 12 -36 14 -63
l5 -51 -45 1 c-31 0 -48 5 -56 18 -16 25 4 51 43 55 41 4 36 26 -7 30 -18 2
-30 8 -27 13 9 13 61 11 73 -3z"/>
<path d="M1944 4306 c-10 -41 -1 -61 26 -61 22 0 25 5 28 43 3 39 1 42 -22 42
-19 0 -27 -7 -32 -24z"/>
<path d="M756 4324 c-25 -24 -19 -34 19 -34 39 0 48 22 16 40 -15 7 -23 6 -35
-6z"/>
<path d="M1357 4329 c-11 -7 -17 -22 -17 -44 0 -39 24 -59 52 -44 12 6 18 21
18 44 0 39 -24 60 -53 44z"/>
<path d="M2103 4283 c-7 -2 -13 -14 -13 -24 0 -31 54 -22 58 9 3 22 -14 28
-45 15z"/>
<path d="M2403 4283 c-7 -2 -13 -14 -13 -24 0 -31 54 -22 58 9 3 22 -14 28
-45 15z"/>
<path d="M2257 4019 c-21 -12 -23 -72 -3 -88 25 -21 56 4 56 44 0 39 -24 60
-53 44z"/>
<path d="M2406 4014 c-37 -36 -6 -106 36 -83 30 16 19 99 -13 99 -4 0 -15 -7
-23 -16z"/>
<path d="M1943 4004 c-3 -8 -1 -20 5 -26 16 -16 47 -5 50 20 3 18 -1 22 -23
22 -14 0 -28 -7 -32 -16z"/>
<path d="M756 3394 c-25 -24 -19 -34 19 -34 39 0 48 22 16 40 -15 7 -23 6 -35
-6z"/>
<path d="M1357 3399 c-11 -7 -17 -22 -17 -44 0 -39 24 -59 52 -44 12 6 18 21
18 44 0 39 -24 60 -53 44z"/>
<path d="M2102 3388 c-20 -20 -14 -28 24 -28 29 0 35 3 30 16 -3 9 -6 18 -6
20 0 9 -37 3 -48 -8z"/>
<path d="M1656 3084 c-37 -36 -6 -106 36 -83 30 16 19 99 -13 99 -4 0 -15 -7
-23 -16z"/>
<path d="M1202 3091 c-23 -14 -10 -46 18 -46 20 0 25 5 25 25 0 26 -20 36 -43
21z"/>
<path d="M1507 3089 c-11 -7 -17 -22 -17 -44 0 -39 24 -59 52 -44 12 6 18 21
18 44 0 39 -24 60 -53 44z"/>
<path d="M1797 3043 c-13 -12 -7 -44 8 -49 20 -8 45 13 45 37 0 13 -7 19 -23
19 -13 0 -27 -3 -30 -7z"/>
<path d="M2703 3043 c-7 -2 -13 -14 -13 -24 0 -31 54 -22 58 9 3 22 -14 28
-45 15z"/>
<path d="M2544 2136 c-10 -41 -1 -61 26 -61 22 0 25 5 28 43 3 39 1 42 -22 42
-19 0 -27 -7 -32 -24z"/>
<path d="M1957 2159 c-11 -7 -17 -22 -17 -44 0 -39 24 -59 52 -44 12 6 18 21
18 44 0 39 -24 60 -53 44z"/>
<path d="M3152 1848 c-24 -24 -9 -98 19 -98 4 0 15 7 23 16 23 22 20 71 -3 84
-24 13 -24 13 -39 -2z"/>
<path d="M3752 1848 c-24 -24 -9 -98 19 -98 4 0 15 7 23 16 23 22 20 71 -3 84
-24 13 -24 13 -39 -2z"/>
<path d="M4793 1834 c-3 -8 -1 -20 5 -26 16 -16 47 -5 50 20 3 18 -1 22 -23
22 -14 0 -28 -7 -32 -16z"/>
<path d="M1957 1849 c-11 -7 -17 -22 -17 -44 0 -39 24 -59 52 -44 12 6 18 21
18 44 0 39 -24 60 -53 44z"/>
<path d="M3452 1848 c-17 -17 -15 -73 2 -87 11 -9 20 -10 35 -1 28 15 29 75 2
90 -24 13 -24 13 -39 -2z"/>
<path d="M3294 1516 c-10 -41 -1 -61 26 -61 22 0 25 5 28 43 3 39 1 42 -22 42
-19 0 -27 -7 -32 -24z"/>
<path d="M1957 1539 c-11 -7 -17 -22 -17 -44 0 -39 24 -59 52 -44 12 6 18 21
18 44 0 39 -24 60 -53 44z"/>
<path d="M2553 1493 c-7 -2 -13 -14 -13 -24 0 -31 54 -22 58 9 3 22 -14 28
-45 15z"/>
<path d="M2403 1183 c-7 -2 -13 -14 -13 -24 0 -31 54 -22 58 9 3 22 -14 28
-45 15z"/>
</g>
</svg>
